<?xml version="1.0" standalone="no"?>
<!DOCTYPE svg PUBLIC "-//W3C//DTD SVG 20010904//EN"
 "http://www.w3.org/TR/2001/REC-SVG-20010904/DTD/svg10.dtd">
<svg version="1.0" xmlns="http://www.w3.org/2000/svg"
 width="359.000000pt" height="154.000000pt" viewBox="0 0 359.000000 154.000000"
 preserveAspectRatio="xMidYMid meet">

<g transform="translate(0.000000,154.000000) scale(0.100000,-0.100000)"
fill="#000000" stroke="none">
<path d="M764 988 c1 -16 -7 -27 -26 -35 -31 -13 -35 -28 -14 -52 22 -26 29
-71 11 -71 -22 0 -23 -48 -2 -62 8 -5 5 -8 -6 -8 -11 0 -22 -12 -29 -30 -13
-38 -29 -34 -40 9 -9 34 -28 33 -28 -2 0 -12 -8 -31 -17 -42 -13 -16 -15 -17
-10 -2 4 11 1 17 -8 17 -19 0 -19 -13 0 -50 22 -42 72 -76 143 -95 58 -17 65
-17 105 -1 24 9 56 29 71 44 26 28 26 29 11 66 -23 55 -21 155 4 204 20 40 20
40 1 65 -25 32 -97 67 -137 67 -25 0 -30 -4 -29 -22z m89 -165 c6 -52 -1 -103
-13 -103 -4 0 -13 6 -19 14 -10 12 -8 17 8 26 26 13 27 33 2 51 -15 11 -17 19
-10 37 14 35 26 26 32 -25z m-61 -78 c2 -12 -3 -21 -15 -23 -22 -4 -33 24 -17
44 15 17 27 9 32 -21z m-17 -125 c-3 -5 -12 -10 -18 -10 -7 0 -6 4 3 10 19 12
23 12 15 0z"/>
<path d="M1072 997 c-89 -33 -152 -127 -152 -227 0 -72 26 -126 84 -177 83
-73 196 -79 289 -16 54 38 62 56 43 104 -21 51 -20 138 1 191 l17 42 -41 36
c-64 57 -161 75 -241 47z m122 -83 c4 -10 1 -14 -6 -12 -15 5 -23 28 -10 28 5
0 13 -7 16 -16z m3 -30 c-3 -3 -12 -4 -19 -1 -8 3 -5 6 6 6 11 1 17 -2 13 -5z
m-50 -10 c-3 -3 -12 -4 -19 -1 -8 3 -5 6 6 6 11 1 17 -2 13 -5z m13 -55 c0 -5
-7 -9 -15 -9 -9 0 -12 6 -9 15 6 15 24 11 24 -6z m115 -149 c22 0 18 -17 -7
-34 -15 -9 -41 -13 -70 -11 -27 2 -48 0 -48 -5 0 -5 17 -7 38 -4 27 3 33 1 22
-6 -23 -15 -93 -12 -135 6 -20 8 -34 18 -31 21 3 3 0 13 -7 21 -8 10 -8 13 -1
9 7 -4 14 0 18 8 8 22 21 18 34 -10 12 -26 35 -36 26 -10 -4 8 -1 15 5 15 6 0
11 -7 11 -16 0 -13 6 -15 27 -9 35 8 53 23 53 42 0 13 3 13 25 -1 13 -9 31
-16 40 -16z m-94 0 c-25 -22 -41 -26 -41 -10 0 6 9 10 19 10 11 0 23 5 26 10
3 6 9 10 13 10 4 -1 -4 -10 -17 -20z"/>
<path d="M1085 631 c-2 -5 7 -12 21 -15 35 -9 40 -2 9 12 -13 6 -27 7 -30 3z"/>
<path d="M1911 979 c-46 -14 -124 -94 -139 -145 -20 -68 -15 -126 16 -185 65
-127 220 -166 339 -86 54 36 52 26 56 210 l3 129 -40 34 c-60 51 -148 67 -235
43z m159 -84 c115 -59 115 -222 0 -283 -78 -41 -155 -19 -208 59 -30 44 -28
129 6 176 41 58 138 81 202 48z"/>
<path d="M1874 825 c-4 -9 -3 -28 1 -43 4 -15 7 -42 7 -59 -1 -28 3 -33 23
-33 13 0 27 5 31 11 4 8 12 2 21 -15 17 -33 31 -33 43 -1 5 14 16 25 24 25 14
0 56 45 56 61 0 5 -9 13 -21 19 -28 16 -75 -4 -93 -39 l-14 -26 1 37 c1 41
-25 78 -55 78 -10 0 -21 -7 -24 -15z"/>
<path d="M2355 979 c-49 -14 -110 -73 -135 -131 -46 -107 -6 -231 94 -293 43
-26 59 -30 120 -30 59 0 79 5 117 27 65 39 74 51 54 81 l-15 24 -35 -33 c-39
-36 -85 -49 -145 -41 -154 20 -187 238 -46 306 71 35 135 25 192 -30 l30 -29
18 36 c17 36 16 37 -5 60 -53 56 -157 79 -244 53z"/>
<path d="M1415 948 c-109 -95 -106 -273 5 -357 19 -14 29 -19 23 -10 -10 12
-10 18 -1 27 9 9 7 12 -7 14 -11 1 54 5 145 8 161 5 165 6 168 27 2 16 -6 28
-30 43 -18 11 -37 21 -42 23 -5 2 -10 30 -11 64 -2 79 -31 137 -69 141 -33 4
-67 -23 -59 -46 4 -14 3 -15 -6 -2 -12 17 -13 17 -40 -38 -16 -31 -20 -52 -15
-76 5 -28 2 -36 -14 -45 -20 -11 -21 -8 -24 109 -2 96 0 124 12 135 27 28 1
15 -35 -17z m195 -77 c8 -16 6 -21 -10 -26 -29 -9 -25 -23 6 -19 19 2 24 -2
22 -14 -3 -11 -12 -16 -26 -15 -23 3 -30 -11 -11 -23 8 -4 8 -9 0 -17 -9 -9
-6 -16 9 -27 11 -9 22 -29 23 -45 2 -27 -1 -30 -31 -33 -36 -4 -40 2 -45 65
-2 24 -6 46 -10 50 -12 11 -8 36 10 55 9 11 11 18 5 18 -17 0 -15 16 4 34 21
21 41 20 54 -3z"/>
<path d="M2867 903 c-4 -3 -7 -24 -7 -45 0 -31 3 -38 20 -38 22 0 27 16 8 23
-10 3 -10 7 -1 17 6 7 18 10 27 7 23 -9 -8 -67 -37 -67 -20 0 -20 -1 -2 -13
13 -10 15 -16 6 -21 -6 -4 -18 -2 -26 4 -10 8 -15 9 -15 2 0 -6 5 -14 10 -17
6 -4 8 -15 5 -26 -4 -11 -2 -19 4 -19 6 0 11 6 11 14 0 20 27 27 40 10 15 -17
42 -18 58 -2 9 9 12 8 12 -4 0 -9 -7 -19 -16 -22 -9 -4 -14 -9 -11 -12 7 -7
67 27 67 38 0 4 -11 10 -25 14 -29 7 -29 7 -9 45 28 55 -13 119 -76 119 -20 0
-40 -3 -43 -7z"/>
<path d="M2193 859 c-2 -23 3 -25 10 -4 4 8 3 16 -1 19 -4 3 -9 -4 -9 -15z"/>
<path d="M2421 815 c-10 -29 -10 -42 0 -66 l12 -30 19 30 c19 29 19 31 1 66
l-19 36 -13 -36z"/>
<path d="M2470 839 c13 -6 32 -15 40 -22 9 -7 5 -2 -8 11 -13 12 -31 22 -40
21 -11 0 -9 -4 8 -10z"/>
<path d="M2356 682 c-3 -5 1 -15 9 -22 21 -17 27 -9 10 13 -7 10 -16 14 -19 9z"/>
<path d="M2496 674 c-9 -24 -7 -28 9 -14 17 14 20 30 6 30 -5 0 -12 -7 -15
-16z"/>
<path d="M2802 630 c0 -14 2 -19 5 -12 2 6 2 18 0 25 -3 6 -5 1 -5 -13z"/>
<path d="M2930 613 c-8 -3 -19 -12 -23 -20 -5 -7 -12 -11 -18 -8 -5 4 -9 -1
-9 -9 0 -24 22 -19 60 14 32 27 28 37 -10 23z"/>
<path d="M2766 584 c-8 -20 1 -34 20 -34 15 0 17 9 8 34 -8 20 -20 20 -28 0z"/>
<path d="M2838 553 c6 -2 18 -2 25 0 6 3 1 5 -13 5 -14 0 -19 -2 -12 -5z"/>
</g>
</svg>
